<svg id="visual" viewBox="0 0 1800 1200" width="1800" height="1200" xmlns="http://www.w3.org/2000/svg" xmlns:xlink="http://www.w3.org/1999/xlink" version="1.1"><path d="M0 181L27.3 169C54.7 157 109.3 133 163.8 123C218.3 113 272.7 117 327.2 125C381.7 133 436.3 145 491 137C545.7 129 600.3 101 654.8 93C709.3 85 763.7 97 818.2 107C872.7 117 927.3 125 981.8 123C1036.3 121 1090.7 109 1145.2 119C1199.7 129 1254.3 161 1309 173C1363.7 185 1418.3 177 1472.8 181C1527.3 185 1581.7 201 1636.2 185C1690.7 169 1745.3 121 1772.7 97L1800 73L1800 0L1772.7 0C1745.3 0 1690.7 0 1636.2 0C1581.7 0 1527.3 0 1472.8 0C1418.3 0 1363.7 0 1309 0C1254.3 0 1199.7 0 1145.2 0C1090.7 0 1036.3 0 981.8 0C927.3 0 872.7 0 818.2 0C763.7 0 709.3 0 654.8 0C600.3 0 545.7 0 491 0C436.3 0 381.7 0 327.2 0C272.7 0 218.3 0 163.8 0C109.3 0 54.7 0 27.3 0L0 0Z" fill="#133c7b"></path><path d="M0 361L27.3 363C54.7 365 109.3 369 163.8 357C218.3 345 272.7 317 327.2 311C381.7 305 436.3 321 491 305C545.7 289 600.3 241 654.8 223C709.3 205 763.7 217 818.2 251C872.7 285 927.3 341 981.8 361C1036.3 381 1090.7 365 1145.2 377C1199.7 389 1254.3 429 1309 449C1363.7 469 1418.3 469 1472.8 457C1527.3 445 1581.7 421 1636.2 415C1690.7 409 1745.3 421 1772.7 427L1800 433L1800 71L1772.7 95C1745.3 119 1690.7 167 1636.2 183C1581.7 199 1527.3 183 1472.8 179C1418.3 175 1363.7 183 1309 171C1254.3 159 1199.7 127 1145.2 117C1090.7 107 1036.3 119 981.8 121C927.3 123 872.7 115 818.2 105C763.7 95 709.3 83 654.8 91C600.3 99 545.7 127 491 135C436.3 143 381.7 131 327.2 123C272.7 115 218.3 111 163.8 121C109.3 131 54.7 155 27.3 167L0 179Z" fill="#0d3168"></path><path d="M0 517L27.3 513C54.7 509 109.3 501 163.8 477C218.3 453 272.7 413 327.2 399C381.7 385 436.3 397 491 385C545.7 373 600.3 337 654.8 325C709.3 313 763.7 325 818.2 363C872.7 401 927.3 465 981.8 485C1036.3 505 1090.7 481 1145.2 479C1199.7 477 1254.3 497 1309 517C1363.7 537 1418.3 557 1472.8 563C1527.3 569 1581.7 561 1636.2 543C1690.7 525 1745.3 497 1772.7 483L1800 469L1800 431L1772.7 425C1745.3 419 1690.7 407 1636.2 413C1581.7 419 1527.3 443 1472.8 455C1418.3 467 1363.7 467 1309 447C1254.3 427 1199.7 387 1145.2 375C1090.7 363 1036.3 379 981.8 359C927.3 339 872.7 283 818.2 249C763.7 215 709.3 203 654.8 221C600.3 239 545.7 287 491 303C436.3 319 381.7 303 327.2 309C272.7 315 218.3 343 163.8 355C109.3 367 54.7 363 27.3 361L0 359Z" fill="#072756"></path><path d="M0 661L27.3 653C54.7 645 109.3 629 163.8 607C218.3 585 272.7 557 327.2 545C381.7 533 436.3 537 491 521C545.7 505 600.3 469 654.8 445C709.3 421 763.7 409 818.2 433C872.7 457 927.3 517 981.8 545C1036.3 573 1090.7 569 1145.2 593C1199.7 617 1254.3 669 1309 685C1363.7 701 1418.3 681 1472.8 677C1527.3 673 1581.7 685 1636.2 665C1690.7 645 1745.3 593 1772.7 567L1800 541L1800 467L1772.7 481C1745.3 495 1690.7 523 1636.2 541C1581.7 559 1527.3 567 1472.8 561C1418.3 555 1363.7 535 1309 515C1254.3 495 1199.7 475 1145.2 477C1090.7 479 1036.3 503 981.8 483C927.3 463 872.7 399 818.2 361C763.7 323 709.3 311 654.8 323C600.3 335 545.7 371 491 383C436.3 395 381.7 383 327.2 397C272.7 411 218.3 451 163.8 475C109.3 499 54.7 507 27.3 511L0 515Z" fill="#031d44"></path><path d="M0 829L27.3 815C54.7 801 109.3 773 163.8 753C218.3 733 272.7 721 327.2 751C381.7 781 436.3 853 491 849C545.7 845 600.3 765 654.8 753C709.3 741 763.7 797 818.2 827C872.7 857 927.3 861 981.8 847C1036.3 833 1090.7 801 1145.2 817C1199.7 833 1254.3 897 1309 907C1363.7 917 1418.3 873 1472.8 889C1527.3 905 1581.7 981 1636.2 961C1690.7 941 1745.3 825 1772.7 767L1800 709L1800 539L1772.7 565C1745.3 591 1690.7 643 1636.2 663C1581.7 683 1527.3 671 1472.8 675C1418.3 679 1363.7 699 1309 683C1254.3 667 1199.7 615 1145.2 591C1090.7 567 1036.3 571 981.8 543C927.3 515 872.7 455 818.2 431C763.7 407 709.3 419 654.8 443C600.3 467 545.7 503 491 519C436.3 535 381.7 531 327.2 543C272.7 555 218.3 583 163.8 605C109.3 627 54.7 643 27.3 651L0 659Z" fill="#031b3e"></path><path d="M0 913L27.3 899C54.7 885 109.3 857 163.8 845C218.3 833 272.7 837 327.2 877C381.7 917 436.3 993 491 975C545.7 957 600.3 845 654.8 833C709.3 821 763.7 909 818.2 953C872.7 997 927.3 997 981.8 969C1036.3 941 1090.7 885 1145.2 885C1199.7 885 1254.3 941 1309 951C1363.7 961 1418.3 925 1472.8 941C1527.3 957 1581.7 1025 1636.2 1001C1690.7 977 1745.3 861 1772.7 803L1800 745L1800 707L1772.7 765C1745.3 823 1690.7 939 1636.2 959C1581.7 979 1527.3 903 1472.8 887C1418.3 871 1363.7 915 1309 905C1254.3 895 1199.7 831 1145.2 815C1090.7 799 1036.3 831 981.8 845C927.3 859 872.7 855 818.2 825C763.7 795 709.3 739 654.8 751C600.3 763 545.7 843 491 847C436.3 851 381.7 779 327.2 749C272.7 719 218.3 731 163.8 751C109.3 771 54.7 799 27.3 813L0 827Z" fill="#031a39"></path><path d="M0 1201L27.3 1201C54.7 1201 109.3 1201 163.8 1201C218.3 1201 272.7 1201 327.2 1201C381.7 1201 436.3 1201 491 1201C545.7 1201 600.3 1201 654.8 1201C709.3 1201 763.7 1201 818.2 1201C872.7 1201 927.3 1201 981.8 1201C1036.3 1201 1090.7 1201 1145.2 1201C1199.7 1201 1254.3 1201 1309 1201C1363.7 1201 1418.3 1201 1472.8 1201C1527.3 1201 1581.7 1201 1636.2 1201C1690.7 1201 1745.3 1201 1772.7 1201L1800 1201L1800 743L1772.7 801C1745.3 859 1690.7 975 1636.2 999C1581.7 1023 1527.3 955 1472.8 939C1418.3 923 1363.7 959 1309 949C1254.3 939 1199.7 883 1145.2 883C1090.7 883 1036.3 939 981.8 967C927.3 995 872.7 995 818.2 951C763.7 907 709.3 819 654.8 831C600.3 843 545.7 955 491 973C436.3 991 381.7 915 327.2 875C272.7 835 218.3 831 163.8 843C109.3 855 54.7 883 27.3 897L0 911Z" fill="#041833"></path></svg>